PathFileType	4	(X/Y/Z)	/Users/visionmauri/4_3_2_f_1_Sports2D/4_3_2_f_1_Sports2D_px_person00.trc
DataRate	CameraRate	NumFrames	NumMarkers	Units	OrigDataRate	OrigDataStartFrame	OrigNumFrames
30.0	30.0	7	22	m	30.0	0	360
Frame#	Time	Hip			RHip			RKnee			RAnkle			RBigToe			RSmallToe			RHeel			LHip			LKnee			LAnkle			LBigToe			LSmallToe			LHeel			Neck			Head			Nose			RShoulder			RElbow			RWrist			LShoulder			LElbow			LWrist			
		X1	Y1	Z1	X2	Y2	Z2	X3	Y3	Z3	X4	Y4	Z4	X5	Y5	Z5	X6	Y6	Z6	X7	Y7	Z7	X8	Y8	Z8	X9	Y9	Z9	X10	Y10	Z10	X11	Y11	Z11	X12	Y12	Z12	X13	Y13	Z13	X14	Y14	Z14	X15	Y15	Z15	X16	Y16	Z16	X17	Y17	Z17	X18	Y18	Z18	X19	Y19	Z19	X20	Y20	Z20	X21	Y21	Z21	X22	Y22	Z22
0	0.0	611.9343264332316	868.7505678360574	0.0	683.82092092109	883.8844032404585	0.0	691.3877949468144	1114.6775682787825	0.0	706.5217243962161	1406.0087234164923	0.0	721.6557652105394	1477.8921544077718	0.0	748.1406496173856	1485.467154663865	0.0	725.4399664175052	1477.8969393380485	0.0	540.0478588006089	880.101000906659	0.0	479.5111613339212	1163.8629886186638	0.0	551.3983043582288	1447.6255518740893	0.0	449.2432971808412	1553.5632529227937	0.0	449.24322450754784	1553.563809770438	0.0	585.4503896270716	1493.0282662642553	0.0	645.9852225527102	479.05024822740234	0.0	661.1196989044614	323.92594394193776	0.0	661.1201465056175	410.9474226894918	0.0	763.2738874746284	550.9362591811456	0.0	820.0264409065145	766.595885605567	0.0	789.7582411333937	846.0503682078585	0.0	524.9134729670635	501.750952388359	0.0	415.1916294588576	679.5753450658669	0.0	331.95482726809286	830.9154615201151	0.0
1	0.033426183844011144	611.4566777054704	869.8234930132516	0.0	683.1579809283236	883.5682330086023	0.0	694.0320943062126	1123.2799763354237	0.0	708.1379108090061	1406.3243651289292	0.0	719.5871207414651	1483.7389759708685	0.0	745.3358989516114	1489.7620453973009	0.0	724.8403314316022	1476.3839192412418	0.0	539.6220702564782	879.6669018834577	0.0	479.0037665742947	1160.558153123631	0.0	549.8638328711522	1442.4911694026362	0.0	448.8402878129696	1550.5853936719975	0.0	450.43676213252354	1550.5005129713618	0.0	585.2851420815953	1487.583868130938	0.0	647.9040859898513	479.6445979983975	0.0	661.2525208754677	324.6755946730418	0.0	660.3005785077859	411.8424310590637	0.0	764.7063633783334	550.6633109276752	0.0	821.3719078275303	765.3040989964422	0.0	789.936767005	844.6628949107499	0.0	525.7358136982401	502.08280515556424	0.0	415.0085756702185	682.1569804672962	0.0	330.77284116907737	830.3395093696122	0.0
2	0.06685236768802229	611.638416506172	869.3392909796842	0.0	682.5995005186418	881.5742992579238	0.0	695.218583001385	1131.3102562032027	0.0	710.3621245736866	1406.9500392024022	0.0	718.7970431410778	1488.5482128683293	0.0	743.6040588778566	1494.7667685784393	0.0	724.7353219083058	1477.5494552832513	0.0	539.1106201828724	876.6867224587897	0.0	476.8639172766906	1155.1728836384243	0.0	546.6449800669535	1433.1371845362987	0.0	447.1693106670398	1542.6285194921581	0.0	450.9178061899637	1542.3097740586738	0.0	582.8565618655448	1477.3004692489794	0.0	650.3927772302701	480.79601806528166	0.0	662.8088449294547	325.7909430382469	0.0	659.4084259240616	414.3539092876881	0.0	766.7861914164926	552.7374849647883	0.0	821.8363114761776	764.6366178617169	0.0	790.2160607020824	843.8155359170289	0.0	527.9914349097947	501.74363466831164	0.0	415.0097888785413	682.9526731800952	0.0	330.3697516203687	829.2579330564419	0.0
3	0.10027855153203344	612.0141230670619	866.7290379226342	0.0	681.9230913464684	878.0154014926343	0.0	694.4256185466726	1133.7139502523582	0.0	712.5567485630274	1408.1259216333979	0.0	720.2019506776026	1491.0420716464926	0.0	744.6637226545319	1496.2497320494779	0.0	724.7284084769474	1479.741960930429	0.0	538.4278963555146	871.5645258259378	0.0	473.5152384567142	1148.018454306342	0.0	541.691697867399	1420.5409877980946	0.0	444.358129028614	1528.250147943526	0.0	449.7231320898312	1527.9543995986944	0.0	577.460986877186	1463.371374725102	0.0	652.4715072308763	482.37284056162815	0.0	666.1491293772959	327.69268624773173	0.0	660.8104580589431	418.0928356863625	0.0	768.8418479633182	556.2508001319949	0.0	820.7354401252082	764.9522546468161	0.0	790.0074974166032	843.6708573355371	0.0	531.1743656527997	501.3638870491756	0.0	415.207459247241	681.7189048289458	0.0	330.93642648745407	828.4182047746197	0.0
4	0.13370473537604458	611.090783951682	863.7252798986943	0.0	680.602449769887	875.1562083520754	0.0	693.2670241651542	1128.8680739816455	0.0	714.069064007369	1409.2705618625444	0.0	723.7195614968177	1490.9056939898558	0.0	747.9441130193657	1490.9339594891724	0.0	724.4034597351522	1476.4176275464986	0.0	537.4285006834754	867.6888323200577	0.0	470.88729441198115	1140.7837305298922	0.0	535.9052828959085	1409.5845018970485	0.0	441.21759698603114	1507.6852620585512	0.0	446.79244482164336	1508.7382329944396	0.0	570.615754334142	1450.9843186634655	0.0	653.2988856006456	483.99700106050017	0.0	669.862110787291	330.8645411979552	0.0	665.5069446035817	421.44554073166375	0.0	769.7609366380555	558.3226259052498	0.0	818.7067582419741	765.7828726041207	0.0	788.1202823148531	843.9276625834664	0.0	533.0361814390191	502.882052457104	0.0	415.1732501479479	681.603818552707	0.0	331.15872910632066	828.8498032318354	0.0
5	0.1671309192200557	608.4303181753045	861.9875099918833	0.0	678.3788192585121	874.2583723289383	0.0	692.7580336505976	1122.5128581406052	0.0	715.0840479217183	1408.2177621422545	0.0	728.4516387456426	1487.3943575775056	0.0	750.9139039694056	1481.8690834785489	0.0	724.5616275128275	1464.1468434216133	0.0	536.0556936813555	866.7439551466181	0.0	470.12516989996186	1134.9413376957848	0.0	529.4421546224829	1403.7187532285175	0.0	438.08317815167334	1482.719621335284	0.0	443.02045771055424	1487.0220381963475	0.0	563.4358332137433	1443.6715767910573	0.0	653.2774598776404	486.0783577997991	0.0	672.0293217810699	335.11978672111366	0.0	669.5226249585892	423.9530116284621	0.0	769.2811981436495	559.272675693549	0.0	816.7262612264176	766.2316182226809	0.0	784.2765764039735	844.5431362910354	0.0	532.2104834605082	506.8684030458077	0.0	414.5706684682449	684.0899823300977	0.0	329.6977392662276	830.0399158740871	0.0
6	0.20055710306406688	605.2663737368139	860.6072528063156	0.0	675.6191695455958	873.0548724258192	0.0	691.4651645105793	1118.2270045855873	0.0	715.5876331818044	1400.7044069822603	0.0	733.2056195837067	1478.0179496302596	0.0	752.370506293114	1473.830746829621	0.0	725.5580002491224	1444.9154721188222	0.0	534.0721930630189	865.821374132395	0.0	471.03180342328864	1130.8736385397306	0.0	521.6296125800087	1401.4519428974668	0.0	435.4690853350411	1458.3309943402487	0.0	438.6027891686145	1466.8141862202358	0.0	554.6576594959338	1440.7759109907781	0.0	652.6892870113344	489.68980140741127	0.0	672.3079016200894	339.2498730777217	0.0	669.2800768140021	426.8165390094988	0.0	767.9723657681453	562.4148863011225	0.0	814.3868091043456	765.6963004375255	0.0	780.4297203859933	845.0312011166037	0.0	530.129359630149	511.1155123009131	0.0	414.14146802070155	685.2436801143117	0.0	327.2939245362313	830.4135355455786	0.0
